<svg width="1920" height="200" viewBox="0 0 1920 200" fill="none" xmlns="http://www.w3.org/2000/svg">
<path fill-rule="evenodd" clip-rule="evenodd" d="M-11.8029 199.91L69.19 199.965C150.183 200.02 312.169 200.129 474.169 178.239C636.17 155.964 798.186 111.69 960.189 85.9406C1122.19 60.1916 1284.18 52.582 1446.16 71.2164C1608.13 89.8508 1770.09 134.729 1851.06 156.783L1932.04 179.222L1932.16 1.30239L1851.17 1.2478C1770.18 1.1932 1608.19 1.08401 1446.2 0.974817C1284.22 0.865624 1122.23 0.756431 960.246 0.647239C798.261 0.538046 636.275 0.428853 474.289 0.319661C312.303 0.210468 150.318 0.101275 69.3247 0.0466789L-11.6682 -0.00791742L-11.8029 199.91Z" fill="#0E172C"/>
</svg>
