<svg width="1920" height="226" viewBox="0 0 1920 226" fill="none" xmlns="http://www.w3.org/2000/svg">
<path fill-rule="evenodd" clip-rule="evenodd" d="M1919.73 79.3264L1855.74 70.9604C1791.76 62.1608 1663.8 45.4287 1535.76 61.6464C1407.73 78.2976 1279.63 127.899 1151.58 152.787C1023.53 177.242 895.53 176.985 767.547 168.49C639.564 159.996 511.598 142.83 383.581 151.244C255.564 159.224 127.498 192.35 63.4646 208.696L-0.568375 225.043L-0.117096 0.464273L63.8828 0.592877C127.883 0.721481 255.882 0.97869 383.882 1.2359C511.882 1.49311 639.882 1.75032 767.881 2.00752C895.881 2.26473 1023.88 2.52194 1151.88 2.77915C1279.88 3.03636 1407.88 3.29357 1535.88 3.55077C1663.88 3.80798 1791.88 4.06519 1855.88 4.1938L1919.88 4.3224L1919.73 79.3264Z" fill="#0E172C"/>
</svg>
